<mxfile host="app.diagrams.net" modified="2020-10-30T10:15:35.865Z" agent="5.0 (Windows NT 10.0; Win64; x64) AppleWebKit/537.36 (KHTML, like Gecko) Chrome/86.0.4240.111 Safari/537.36" etag="ia2FPLHwx5foFfwkf8gI" version="13.8.7" type="github">
  <diagram id="C5RBs43oDa-KdzZeNtuy" name="Page-1">
    <mxGraphModel dx="1221" dy="645" grid="1" gridSize="10" guides="1" tooltips="1" connect="1" arrows="1" fold="1" page="1" pageScale="1" pageWidth="827" pageHeight="1169" math="0" shadow="0">
      <root>
        <mxCell id="WIyWlLk6GJQsqaUBKTNV-0" />
        <mxCell id="WIyWlLk6GJQsqaUBKTNV-1" parent="WIyWlLk6GJQsqaUBKTNV-0" />
        <mxCell id="D3KKQK-YE7YDxinAq4iv-0" value="Author" style="swimlane;fontStyle=0;childLayout=stackLayout;horizontal=1;startSize=26;fillColor=none;horizontalStack=0;resizeParent=1;resizeParentMax=0;resizeLast=0;collapsible=1;marginBottom=0;" vertex="1" parent="WIyWlLk6GJQsqaUBKTNV-1">
          <mxGeometry x="160" y="280" width="120" height="240" as="geometry" />
        </mxCell>
        <mxCell id="D3KKQK-YE7YDxinAq4iv-1" value="eOf()&#xa;getOne()&#xa;query()&#xa;recordSet()&#xa;name()&#xa;iD()&#xa;fName()&#xa;IName()&#xa;phone()&#xa;address()&#xa;city()&#xa;state()&#xa;zip()&#xa;contract()" style="text;strokeColor=none;fillColor=none;align=left;verticalAlign=top;spacingLeft=4;spacingRight=4;overflow=hidden;rotatable=0;points=[[0,0.5],[1,0.5]];portConstraint=eastwest;" vertex="1" parent="D3KKQK-YE7YDxinAq4iv-0">
          <mxGeometry y="26" width="120" height="214" as="geometry" />
        </mxCell>
        <mxCell id="D3KKQK-YE7YDxinAq4iv-9" value="Authors" style="swimlane;fontStyle=0;childLayout=stackLayout;horizontal=1;startSize=26;fillColor=none;horizontalStack=0;resizeParent=1;resizeParentMax=0;resizeLast=0;collapsible=1;marginBottom=0;" vertex="1" parent="WIyWlLk6GJQsqaUBKTNV-1">
          <mxGeometry x="400" y="280" width="120" height="320" as="geometry" />
        </mxCell>
        <mxCell id="D3KKQK-YE7YDxinAq4iv-10" value="addNew()&#xa;bOf()&#xa;eOf()&#xa;getAll()&#xa;moveFirst()&#xa;moveLast()&#xa;moveNext()&#xa;movePrevious()&#xa;query()&#xa;recordSet()&#xa;name()&#xa;iD()&#xa;fName&#xa;IName&#xa;phone()&#xa;adress()&#xa;city()&#xa;zip()&#xa;contract()&#xa;getNew()&#xa;" style="text;strokeColor=none;fillColor=none;align=left;verticalAlign=top;spacingLeft=4;spacingRight=4;overflow=hidden;rotatable=0;points=[[0,0.5],[1,0.5]];portConstraint=eastwest;" vertex="1" parent="D3KKQK-YE7YDxinAq4iv-9">
          <mxGeometry y="26" width="120" height="294" as="geometry" />
        </mxCell>
        <mxCell id="D3KKQK-YE7YDxinAq4iv-13" value="Form1" style="swimlane;fontStyle=1;align=center;verticalAlign=top;childLayout=stackLayout;horizontal=1;startSize=26;horizontalStack=0;resizeParent=1;resizeParentMax=0;resizeLast=0;collapsible=1;marginBottom=0;" vertex="1" parent="WIyWlLk6GJQsqaUBKTNV-1">
          <mxGeometry x="280" y="130" width="120" height="70" as="geometry" />
        </mxCell>
        <mxCell id="D3KKQK-YE7YDxinAq4iv-15" value="" style="line;strokeWidth=1;fillColor=none;align=left;verticalAlign=middle;spacingTop=-1;spacingLeft=3;spacingRight=3;rotatable=0;labelPosition=right;points=[];portConstraint=eastwest;" vertex="1" parent="D3KKQK-YE7YDxinAq4iv-13">
          <mxGeometry y="26" width="120" height="8" as="geometry" />
        </mxCell>
        <mxCell id="D3KKQK-YE7YDxinAq4iv-16" value="command1Click()&#xa;command2Click()" style="text;strokeColor=none;fillColor=none;align=left;verticalAlign=top;spacingLeft=4;spacingRight=4;overflow=hidden;rotatable=0;points=[[0,0.5],[1,0.5]];portConstraint=eastwest;" vertex="1" parent="D3KKQK-YE7YDxinAq4iv-13">
          <mxGeometry y="34" width="120" height="36" as="geometry" />
        </mxCell>
        <mxCell id="D3KKQK-YE7YDxinAq4iv-22" value="" style="endArrow=open;html=1;dashed=1;startArrow=none;startFill=0;endFill=0;exitX=0.23;exitY=1.083;exitDx=0;exitDy=0;exitPerimeter=0;" edge="1" parent="WIyWlLk6GJQsqaUBKTNV-1" source="D3KKQK-YE7YDxinAq4iv-16">
          <mxGeometry width="50" height="50" relative="1" as="geometry">
            <mxPoint x="260" y="230" as="sourcePoint" />
            <mxPoint x="230" y="280" as="targetPoint" />
          </mxGeometry>
        </mxCell>
        <mxCell id="D3KKQK-YE7YDxinAq4iv-23" value="" style="endArrow=open;html=1;dashed=1;startArrow=none;startFill=0;endFill=0;exitX=0.23;exitY=1.083;exitDx=0;exitDy=0;exitPerimeter=0;entryX=0.361;entryY=-0.008;entryDx=0;entryDy=0;entryPerimeter=0;" edge="1" parent="WIyWlLk6GJQsqaUBKTNV-1" target="D3KKQK-YE7YDxinAq4iv-9">
          <mxGeometry width="50" height="50" relative="1" as="geometry">
            <mxPoint x="347.6" y="200" as="sourcePoint" />
            <mxPoint x="270" y="277.01199999999994" as="targetPoint" />
          </mxGeometry>
        </mxCell>
        <mxCell id="D3KKQK-YE7YDxinAq4iv-24" value="" style="endArrow=none;html=1;exitX=-0.007;exitY=0.031;exitDx=0;exitDy=0;exitPerimeter=0;" edge="1" parent="WIyWlLk6GJQsqaUBKTNV-1">
          <mxGeometry width="50" height="50" relative="1" as="geometry">
            <mxPoint x="79.37" y="80.62" as="sourcePoint" />
            <mxPoint x="600" y="80" as="targetPoint" />
          </mxGeometry>
        </mxCell>
        <mxCell id="D3KKQK-YE7YDxinAq4iv-26" value="" style="endArrow=none;html=1;" edge="1" parent="WIyWlLk6GJQsqaUBKTNV-1">
          <mxGeometry width="50" height="50" relative="1" as="geometry">
            <mxPoint x="600" y="640" as="sourcePoint" />
            <mxPoint x="600" y="80" as="targetPoint" />
          </mxGeometry>
        </mxCell>
        <mxCell id="D3KKQK-YE7YDxinAq4iv-27" value="" style="endArrow=none;html=1;" edge="1" parent="WIyWlLk6GJQsqaUBKTNV-1">
          <mxGeometry width="50" height="50" relative="1" as="geometry">
            <mxPoint x="80" y="640" as="sourcePoint" />
            <mxPoint x="600" y="640" as="targetPoint" />
          </mxGeometry>
        </mxCell>
        <mxCell id="D3KKQK-YE7YDxinAq4iv-28" value="" style="endArrow=none;html=1;" edge="1" parent="WIyWlLk6GJQsqaUBKTNV-1">
          <mxGeometry width="50" height="50" relative="1" as="geometry">
            <mxPoint x="80" y="640" as="sourcePoint" />
            <mxPoint x="80" y="80" as="targetPoint" />
          </mxGeometry>
        </mxCell>
        <mxCell id="D3KKQK-YE7YDxinAq4iv-31" value="" style="endArrow=none;html=1;" edge="1" parent="WIyWlLk6GJQsqaUBKTNV-1">
          <mxGeometry width="50" height="50" relative="1" as="geometry">
            <mxPoint x="80" y="80" as="sourcePoint" />
            <mxPoint x="80" y="80" as="targetPoint" />
          </mxGeometry>
        </mxCell>
        <mxCell id="D3KKQK-YE7YDxinAq4iv-34" value="Diagram Class" style="text;html=1;align=center;verticalAlign=middle;resizable=0;points=[];autosize=1;" vertex="1" parent="WIyWlLk6GJQsqaUBKTNV-1">
          <mxGeometry x="80" y="80" width="90" height="20" as="geometry" />
        </mxCell>
        <mxCell id="D3KKQK-YE7YDxinAq4iv-35" value="" style="endArrow=none;html=1;" edge="1" parent="WIyWlLk6GJQsqaUBKTNV-1">
          <mxGeometry width="50" height="50" relative="1" as="geometry">
            <mxPoint x="80" y="110" as="sourcePoint" />
            <mxPoint x="170" y="110" as="targetPoint" />
          </mxGeometry>
        </mxCell>
        <mxCell id="D3KKQK-YE7YDxinAq4iv-36" value="" style="endArrow=none;html=1;" edge="1" parent="WIyWlLk6GJQsqaUBKTNV-1">
          <mxGeometry width="50" height="50" relative="1" as="geometry">
            <mxPoint x="180" y="100" as="sourcePoint" />
            <mxPoint x="180" y="80" as="targetPoint" />
          </mxGeometry>
        </mxCell>
        <mxCell id="D3KKQK-YE7YDxinAq4iv-37" value="" style="endArrow=none;html=1;" edge="1" parent="WIyWlLk6GJQsqaUBKTNV-1">
          <mxGeometry width="50" height="50" relative="1" as="geometry">
            <mxPoint x="170" y="110" as="sourcePoint" />
            <mxPoint x="180" y="100" as="targetPoint" />
          </mxGeometry>
        </mxCell>
      </root>
    </mxGraphModel>
  </diagram>
</mxfile>
